<svg width="200" height="200" viewBox="0 0 200 200" xmlns="http://www.w3.org/2000/svg">
  <rect width="200" height="200" fill="none"/>
  <path fill="#FFFFFF" d="M 100 0 C 44.771523 0 0 44.771523 0 100 C 0 155.22848 44.771523 200 100 200 C 155.22848 200 200 155.22848 200 100 C 200 44.771523 155.22848 0 100 0 z M 144.51172 57.986328 L 88.699219 141.43555 C 87.835219 142.67555 86.608594 143.50195 85.191406 143.77539 C 84.740406 143.86339 84.284219 143.90527 83.830078 143.9043 C 82.401078 143.9043 81.001719 143.40555 79.908203 142.4668 L 55.488281 120.73047 C 53.127281 118.65847 52.891406 114.93672 54.966797 112.57422 C 57.041797 110.21022 60.757594 109.97539 63.121094 112.04883 L 83.412109 130.10742 L 136.45117 57.962891 C 138.01817 55.757891 141.15048 55.211516 143.35547 56.779297 C 145.56047 58.347297 146.10817 61.480484 144.54102 63.683594 L 144.51172 57.986328 z"/>
</svg>
